# xmcd
#
# Track frame offsets:
#	150
#	12027
#	23200
#	32207
#	43503
#	54454
#	64327
#	72840
#	82233
#	93719
#	103367
#	113162
#
# Disc length: 1646 seconds
#
# Revision: 1
# Processed by: cddbd v1.5.1PL0 Copyright (c) Steve Scherf et al.
# Submitted via: audiograbber 1.83.01
#
DISCID=a6066c0c
DTITLE=Glen Campbell - The Astounding 12-string Guitar of Glen Campbell
DYEAR=1900
DGENRE=
TTITLE0=Lonesome Twelve
TTITLE1=Puff (The Magic Dragon)
TTITLE2=The Ballad Of Jed Clampett
TTITLE3=Blowin' In The Wind
TTITLE4=500 Miles (Away From Home)
TTITLE5=Walkin' Down The Line
TTITLE6=12-string Special
TTITLE7=Green, Green
TTITLE8=Wimoweh
TTITLE9=Bull Durham
TTITLE10=La Bamba
TTITLE11=This Land Is Your Land
EXTD=
EXTT0=
EXTT1=
EXTT2=
EXTT3=
EXTT4=
EXTT5=
EXTT6=
EXTT7=
EXTT8=
EXTT9=
EXTT10=
EXTT11=
PLAYORDER=
